<svg xmlns="http://www.w3.org/2000/svg" id="Layer_2" viewBox="0 0 399.6 100.8"><g><g><path d="M62.4,54.3v-.2c0-11.7,8.4-21.4,20.3-21.4s20,10.7,20,22.3,0,2-.2,3.1h-28.6c1.1,5.3,4.8,8.1,10,8.1s6.7-1.2,10-4.2l6.7,5.9c-3.8,4.8-9.4,7.7-16.8,7.7-12.3,0-21.5-8.7-21.5-21.2ZM91.4,50.9c-.7-5.2-3.8-8.7-8.7-8.7s-8,3.5-8.9,8.7h17.6Z" fill="#644b9f"></path><path d="M107.5,62.8v-.2c0-9,6.8-13.1,16.6-13.1s7.1.7,10,1.7v-.7c0-4.8-3-7.5-8.8-7.5s-7.6.8-11.3,2.2l-2.9-8.9c4.5-2,9-3.3,16-3.3s11,1.7,13.9,4.6,4.4,7.6,4.4,13.1v23.9h-11.3v-4.4c-2.8,3.1-6.7,5.2-12.4,5.2s-14.1-4.4-14.1-12.6ZM134.2,60.1v-2.1c-2-.9-4.6-1.5-7.4-1.5-5,0-8.1,2-8.1,5.7v.2c0,3.1,2.6,5,6.4,5,5.4,0,9.1-3,9.1-7.2Z" fill="#644b9f"></path><path d="M154.3,18.7h11.7v56h-11.7V18.7Z" fill="#644b9f"></path><path d="M177.3,63v-19.5h-4.9v-10h4.9v-10.5h11.7v10.5h9.7v10h-9.7v17.6c0,2.7,1.2,4,3.8,4s4.1-.5,5.8-1.5v9.4c-2.5,1.5-5.3,2.4-9.2,2.4-7.1,0-12-2.8-12-12.3Z" fill="#644b9f"></path><path d="M205.7,18.7h11.7v20.7c2.7-3.5,6.1-6.6,12-6.6,8.8,0,14,5.8,14,15.3v26.6h-11.7v-22.9c0-5.5-2.6-8.4-7.1-8.4s-7.3,2.8-7.3,8.4v22.9h-11.7V18.7Z" fill="#644b9f"></path><path d="M271.1,75.6c-11.3,0-19.9-9.4-19.9-20.3v-.2c0-11,8.7-20.5,19.9-20.5s12,3.4,15.6,7.2l-2.7,2.8c-3.4-3.5-7.2-6.4-13-6.4-8.9,0-15.8,7.4-15.8,16.8v.2c0,9.4,7.1,16.9,16.1,16.9s9.8-2.8,13.1-6.5l2.6,2.3c-4,4.5-8.7,7.7-16,7.7Z" fill="#644b9f"></path><path d="M322.9,74.6v-6.5c-2.7,3.8-7.5,7.4-15,7.4s-15.1-4.1-15.1-12.3v-.2c0-8.1,7-12.7,17.1-12.7s9.2.7,13,1.7v-1.7c0-7.9-4.8-12-12.9-12s-8.7,1.3-12.3,3.1l-1.4-3.3c4.3-2,8.5-3.4,13.9-3.4,10,0,16.3,5.2,16.3,15.3v24.4h-3.7ZM323,55.5c-3.3-.8-7.7-1.8-13.3-1.8-8.3,0-12.9,3.7-12.9,9.1v.2c0,5.7,5.4,9,11.3,9s14.8-4.9,14.8-12v-4.4Z" fill="#644b9f"></path><path d="M359.3,39.1c-9,0-16.9,6.8-16.9,19.6v16h-3.8v-39.1h3.8v11.1c3.1-7,9.6-12,17.3-11.7v4.1h-.4Z" fill="#644b9f"></path><path d="M382.5,72c6.1,0,10.2-2.7,13.4-6.1l2.6,2.3c-4,4.3-8.7,7.4-16.2,7.4s-19.2-8.2-19.2-20.4v-.2c0-11.4,8-20.4,18.6-20.4s17.9,8.9,17.9,20.5v.2c0,.5,0,.8,0,1.4h-32.4c.7,9.7,7.7,15.4,15.3,15.4ZM395.6,53.2c-.5-7.9-5.1-15.2-14-15.2s-13.7,6.5-14.4,15.2h28.5Z" fill="#644b9f"></path></g><g><circle cx="8.2" cy="8.2" r="8.2" fill="#644b9f"></circle><circle cx="46.3" cy="8.2" r="8.2" fill="#644b9f"></circle></g><path d="M39,36.1v6.5H15.5v-6.5C15.5,27.5,8.6,20.6,0,20.6v56.8C0,85.9,6.9,92.9,15.5,92.9h0v-40.5h23.5v40.5c8.6,0,15.5-6.9,15.5-15.5V20.6c-8.6,0-15.5,6.9-15.5,15.5Z" fill="#644b9f"></path></g><g><path d="M71.3,100.8c-4.4,0-7.6-3.4-7.6-7.8s3.2-7.8,7.6-7.8,4.4,1,5.9,2.4l-1.2,1.2c-1.3-1.2-2.7-2.1-4.7-2.1-3.3,0-5.8,2.7-5.8,6.2s2.5,6.2,5.8,6.2,3.4-.8,4.9-2.2l1.1,1.1c-1.6,1.6-3.3,2.7-6,2.7Z" fill="#231f20"></path><path d="M93.1,100.8c-4.6,0-7.7-3.6-7.7-7.8s3.1-7.8,7.7-7.8,7.7,3.6,7.7,7.8-3.1,7.8-7.7,7.8ZM93.1,86.7c-3.4,0-5.9,2.8-5.9,6.2s2.5,6.2,5.9,6.2,5.9-2.8,5.9-6.2-2.5-6.2-5.9-6.2Z" fill="#231f20"></path><path d="M121.9,85.4h1.7v15.1h-1.4l-9.7-12.4v12.4h-1.7v-15.1h1.6l9.5,12.1v-12.1Z" fill="#231f20"></path><path d="M139.5,92.1c3.4.7,4.9,2,4.9,4.3s-2.2,4.3-5.1,4.3-4.4-.8-6.2-2.4l1.1-1.2c1.6,1.4,3.1,2.1,5.2,2.1s3.4-1.1,3.4-2.6-.8-2.2-3.9-2.9c-3.5-.8-5.1-1.9-5.1-4.4s2.1-4.1,5-4.1,3.8.6,5.3,1.9l-1,1.3c-1.4-1.1-2.8-1.6-4.4-1.6s-3.2,1.1-3.2,2.5.8,2.2,4.1,3Z" fill="#231f20"></path><path d="M166.5,94.1c0,4.4-2.5,6.7-6.3,6.7s-6.3-2.3-6.3-6.5v-8.8h1.7v8.7c0,3.3,1.7,5.1,4.6,5.1s4.5-1.7,4.5-5v-8.8h1.7v8.6Z" fill="#231f20"></path><path d="M176.9,85.4h1.7v13.5h8.5v1.6h-10.2v-15.1Z" fill="#231f20"></path><path d="M200.1,100.5h-1.7v-13.5h-5.1v-1.6h11.8v1.6h-5.1v13.5Z" fill="#231f20"></path><path d="M216.5,85.4v15.1h-1.7v-15.1h1.7Z" fill="#231f20"></path><path d="M238.3,85.4h1.7v15.1h-1.4l-9.7-12.4v12.4h-1.7v-15.1h1.6l9.5,12.1v-12.1Z" fill="#231f20"></path><path d="M257.6,100.8c-4.7,0-7.7-3.4-7.7-7.8s3-7.8,7.6-7.8,4.1.7,5.6,2l-1.1,1.3c-1.2-1-2.5-1.7-4.6-1.7-3.3,0-5.7,2.8-5.7,6.2s2.3,6.3,6,6.3,3.3-.7,4.4-1.5v-3.7h-4.6v-1.5h6.2v6c-1.4,1.2-3.5,2.3-6.1,2.3Z" fill="#231f20"></path></g></svg>